<?xml version="1.0" encoding="UTF-8"?>
<!DOCTYPE svg PUBLIC "-//W3C//DTD SVG 1.1//EN" "http://www.w3.org/Graphics/SVG/1.1/DTD/svg11.dtd">
<svg xmlns="http://www.w3.org/2000/svg" version="1.1" width="512px" height="512px" style="shape-rendering:geometricPrecision; text-rendering:geometricPrecision; image-rendering:optimizeQuality; fill-rule:evenodd; clip-rule:evenodd" xmlns:xlink="http://www.w3.org/1999/xlink">
<g><path style="opacity:0.992" fill="#000000" d="M 359.5,35.5 C 359.5,37.5 359.5,39.5 359.5,41.5C 267.166,41.3333 174.833,41.5 82.5,42C 61,47.5 47.5,61 42,82.5C 41.5,170.833 41.3333,259.166 41.5,347.5C 39.5,347.5 37.5,347.5 35.5,347.5C 33.5,347.5 31.5,347.5 29.5,347.5C 29.3333,258.499 29.5,169.499 30,80.5C 36.1667,53 53,36.1667 80.5,30C 173.499,29.5 266.499,29.3333 359.5,29.5C 359.5,31.5 359.5,33.5 359.5,35.5 Z"/></g>
<g><path style="opacity:0.986" fill="#000000" d="M 35.5,375.5 C 37.5,375.5 39.5,375.5 41.5,375.5C 41.3334,392.17 41.5001,408.837 42,425.5C 46.1904,448.69 59.6904,463.19 82.5,469C 196.833,469.667 311.167,469.667 425.5,469C 449.973,464.527 464.473,450.027 469,425.5C 469.667,311.167 469.667,196.833 469,82.5C 463.164,59.6627 448.664,46.1627 425.5,42C 406.17,41.5 386.836,41.3334 367.5,41.5C 367.5,39.5 367.5,37.5 367.5,35.5C 367.5,33.5 367.5,31.5 367.5,29.5C 388.503,29.3334 409.503,29.5 430.5,30C 455.935,35.4343 472.435,50.601 480,75.5C 481.657,193.798 481.99,312.132 481,430.5C 474.833,458 458,474.833 430.5,481C 313.833,481.667 197.167,481.667 80.5,481C 53,474.833 36.1667,458 30,430.5C 29.5001,412.17 29.3334,393.836 29.5,375.5C 31.5,375.5 33.5,375.5 35.5,375.5 Z"/></g>
<g><path style="opacity:1" fill="#3ea8f4" d="M 359.5,35.5 C 362.167,35.5 364.833,35.5 367.5,35.5C 367.5,37.5 367.5,39.5 367.5,41.5C 386.836,41.3334 406.17,41.5 425.5,42C 448.664,46.1627 463.164,59.6627 469,82.5C 469.667,196.833 469.667,311.167 469,425.5C 464.473,450.027 449.973,464.527 425.5,469C 311.167,469.667 196.833,469.667 82.5,469C 59.6904,463.19 46.1904,448.69 42,425.5C 41.5001,408.837 41.3334,392.17 41.5,375.5C 39.5,375.5 37.5,375.5 35.5,375.5C 35.5,372.833 35.5,370.167 35.5,367.5C 37.5,367.5 39.5,367.5 41.5,367.5C 41.5,363.5 41.5,359.5 41.5,355.5C 39.5,355.5 37.5,355.5 35.5,355.5C 35.5,352.833 35.5,350.167 35.5,347.5C 37.5,347.5 39.5,347.5 41.5,347.5C 41.3333,259.166 41.5,170.833 42,82.5C 47.5,61 61,47.5 82.5,42C 174.833,41.5 267.166,41.3333 359.5,41.5C 359.5,39.5 359.5,37.5 359.5,35.5 Z"/></g>
<g><path style="opacity:1" fill="#040405" d="M 385.5,125.5 C 395.116,123.827 401.45,127.493 404.5,136.5C 388.398,214.845 372.231,293.178 356,371.5C 352.703,385.046 344.87,388.546 332.5,382C 312.5,367.333 292.5,352.667 272.5,338C 268.925,334.484 264.925,333.817 260.5,336C 248.456,346.379 236.123,356.379 223.5,366C 213.696,370.518 206.863,367.685 203,357.5C 195.198,331.762 187.198,306.095 179,280.5C 159.785,272.426 140.285,264.926 120.5,258C 114.564,256.289 110.064,252.789 107,247.5C 105.678,238.649 109.178,232.482 117.5,229C 207.129,194.962 296.462,160.462 385.5,125.5 Z"/></g>
<g><path style="opacity:1" fill="#fdfdfd" d="M 207.5,330.5 C 207.5,329.833 207.833,329.5 208.5,329.5C 213.548,334.814 218.714,334.814 224,329.5C 226.408,319.317 228.074,308.984 229,298.5C 229.806,295.554 231.139,292.888 233,290.5C 269.301,257.2 305.301,223.533 341,189.5C 344.568,182.201 342.401,177.868 334.5,176.5C 331.972,176.763 329.639,177.596 327.5,179C 284.833,205.333 242.167,231.667 199.5,258C 193.78,262.935 191.614,269.102 193,276.5C 194.15,279.768 194.984,283.101 195.5,286.5C 195.737,287.791 195.404,288.791 194.5,289.5C 193.466,281.492 190.133,274.659 184.5,269C 163.911,261.137 143.244,253.47 122.5,246C 118.959,244.929 118.292,243.263 120.5,241C 210.66,205.915 300.993,171.415 391.5,137.5C 376.033,215.972 360.033,294.306 343.5,372.5C 343,372.833 342.5,373.167 342,373.5C 321.231,359.068 300.731,344.235 280.5,329C 272.993,322.218 264.66,320.885 255.5,325C 242.983,334.76 230.65,344.76 218.5,355C 217.207,355.49 215.873,355.657 214.5,355.5C 212.37,347.109 210.036,338.775 207.5,330.5 Z"/></g>
<g><path style="opacity:1" fill="#040405" d="M 208.5,329.5 C 204.305,315.037 199.972,300.704 195.5,286.5C 194.984,283.101 194.15,279.768 193,276.5C 191.614,269.102 193.78,262.935 199.5,258C 242.167,231.667 284.833,205.333 327.5,179C 329.639,177.596 331.972,176.763 334.5,176.5C 342.401,177.868 344.568,182.201 341,189.5C 305.301,223.533 269.301,257.2 233,290.5C 231.139,292.888 229.806,295.554 229,298.5C 228.074,308.984 226.408,319.317 224,329.5C 218.714,334.814 213.548,334.814 208.5,329.5 Z"/></g>
<g><path style="opacity:1" fill="#3da5ef" d="M 302.5,207.5 C 303.239,207.369 303.906,207.536 304.5,208C 277.667,232.833 250.833,257.667 224,282.5C 218.435,290.938 215.602,300.271 215.5,310.5C 210.887,297.048 207.387,283.381 205,269.5C 236.581,249.291 268.415,229.458 300.5,210C 301.381,209.292 302.047,208.458 302.5,207.5 Z"/></g>
<g><path style="opacity:1" fill="#d3d3d3" d="M 195.5,286.5 C 199.972,300.704 204.305,315.037 208.5,329.5C 207.833,329.5 207.5,329.833 207.5,330.5C 202.998,316.99 198.665,303.324 194.5,289.5C 195.404,288.791 195.737,287.791 195.5,286.5 Z"/></g>
<g><path style="opacity:1" fill="#000000" d="M 35.5,355.5 C 37.5,355.5 39.5,355.5 41.5,355.5C 41.5,359.5 41.5,363.5 41.5,367.5C 39.5,367.5 37.5,367.5 35.5,367.5C 33.5,367.5 31.5,367.5 29.5,367.5C 29.5,363.5 29.5,359.5 29.5,355.5C 31.5,355.5 33.5,355.5 35.5,355.5 Z"/></g>
</svg>
