<?xml version="1.0" encoding="UTF-8"?>
<!DOCTYPE svg PUBLIC "-//W3C//DTD SVG 1.1//EN" "http://www.w3.org/Graphics/SVG/1.1/DTD/svg11.dtd">
<svg xmlns="http://www.w3.org/2000/svg" version="1.1" width="512px" height="512px" style="shape-rendering:geometricPrecision; text-rendering:geometricPrecision; image-rendering:optimizeQuality; fill-rule:evenodd; clip-rule:evenodd" xmlns:xlink="http://www.w3.org/1999/xlink">
<g><path style="opacity:0.992" fill="#000000" d="M 359.5,35.5 C 359.5,37.5 359.5,39.5 359.5,41.5C 267.833,41.3333 176.166,41.5 84.5,42C 61.8693,46.631 47.7026,60.131 42,82.5C 41.5,170.833 41.3333,259.166 41.5,347.5C 39.5,347.5 37.5,347.5 35.5,347.5C 33.5,347.5 31.5,347.5 29.5,347.5C 29.3333,258.499 29.5,169.499 30,80.5C 36.1667,53 53,36.1667 80.5,30C 173.499,29.5 266.499,29.3333 359.5,29.5C 359.5,31.5 359.5,33.5 359.5,35.5 Z"/></g>
<g><path style="opacity:0.986" fill="#000000" d="M 35.5,375.5 C 37.5,375.5 39.5,375.5 41.5,375.5C 41.3334,392.17 41.5001,408.837 42,425.5C 46.3927,449.559 60.5593,464.059 84.5,469C 198.167,469.667 311.833,469.667 425.5,469C 450,464.5 464.5,450 469,425.5C 469.667,311.833 469.667,198.167 469,84.5C 464.086,60.5867 449.586,46.42 425.5,42C 406.17,41.5 386.836,41.3334 367.5,41.5C 367.5,39.5 367.5,37.5 367.5,35.5C 367.5,33.5 367.5,31.5 367.5,29.5C 388.503,29.3334 409.503,29.5 430.5,30C 455.935,35.4343 472.435,50.601 480,75.5C 481.657,193.798 481.99,312.132 481,430.5C 474.833,458 458,474.833 430.5,481C 313.833,481.667 197.167,481.667 80.5,481C 53,474.833 36.1667,458 30,430.5C 29.5001,412.17 29.3334,393.836 29.5,375.5C 31.5,375.5 33.5,375.5 35.5,375.5 Z"/></g>
<g><path style="opacity:1" fill="#465c9a" d="M 359.5,35.5 C 362.167,35.5 364.833,35.5 367.5,35.5C 367.5,37.5 367.5,39.5 367.5,41.5C 386.836,41.3334 406.17,41.5 425.5,42C 449.586,46.42 464.086,60.5867 469,84.5C 469.667,198.167 469.667,311.833 469,425.5C 464.5,450 450,464.5 425.5,469C 311.833,469.667 198.167,469.667 84.5,469C 60.5593,464.059 46.3927,449.559 42,425.5C 41.5001,408.837 41.3334,392.17 41.5,375.5C 39.5,375.5 37.5,375.5 35.5,375.5C 35.5,372.833 35.5,370.167 35.5,367.5C 37.5,367.5 39.5,367.5 41.5,367.5C 41.5,363.5 41.5,359.5 41.5,355.5C 39.5,355.5 37.5,355.5 35.5,355.5C 35.5,352.833 35.5,350.167 35.5,347.5C 37.5,347.5 39.5,347.5 41.5,347.5C 41.3333,259.166 41.5,170.833 42,82.5C 47.7026,60.131 61.8693,46.631 84.5,42C 176.166,41.5 267.833,41.3333 359.5,41.5C 359.5,39.5 359.5,37.5 359.5,35.5 Z"/></g>
<g><path style="opacity:1" fill="#040405" d="M 229.5,157.5 C 248.573,154.717 266.406,158.05 283,167.5C 286.049,171.647 287.716,176.313 288,181.5C 287.63,198.825 287.63,216.158 288,233.5C 288.333,236.833 288.667,240.167 289,243.5C 289.368,244.91 290.201,245.91 291.5,246.5C 297.839,241.473 303.006,235.473 307,228.5C 316.507,212.311 325.174,195.644 333,178.5C 334.927,173.572 338.427,170.406 343.5,169C 364.5,168.333 385.5,168.333 406.5,169C 417.563,171.065 421.73,177.565 419,188.5C 413.135,203.235 405.468,216.902 396,229.5C 388.333,239.167 380.667,248.833 373,258.5C 369.498,262.833 368.832,267.5 371,272.5C 379,281.833 387.667,290.5 397,298.5C 403.425,304.921 409.091,311.921 414,319.5C 418.166,326.294 419.499,333.627 418,341.5C 417.484,344.034 416.317,346.2 414.5,348C 410.905,350.569 406.905,352.236 402.5,353C 382.795,353.924 363.129,353.59 343.5,352C 338.214,350.359 333.547,347.692 329.5,344C 318.304,332.47 306.804,321.303 295,310.5C 292.597,312.305 290.93,314.638 290,317.5C 288.238,325.399 287.238,333.399 287,341.5C 286.681,344.973 285.181,347.806 282.5,350C 237.636,358.934 199.469,346.768 168,313.5C 146.19,286.56 126.857,257.894 110,227.5C 102.336,214.176 96.3358,200.176 92,185.5C 90.0578,179.11 91.8912,174.277 97.5,171C 101.347,169.384 105.347,168.384 109.5,168C 126.591,167.029 143.591,167.362 160.5,169C 166.427,175.006 171.26,181.839 175,189.5C 182,204.167 189,218.833 196,233.5C 199.691,239.521 204.358,244.521 210,248.5C 212.026,247.48 213.359,245.813 214,243.5C 215.451,229.862 215.784,216.195 215,202.5C 214.316,197.447 212.65,192.78 210,188.5C 205.795,187.208 201.628,185.875 197.5,184.5C 195.661,182.473 195.161,180.14 196,177.5C 199.801,170.161 205.635,164.994 213.5,162C 218.906,160.295 224.239,158.795 229.5,157.5 Z"/></g>
<g><path style="opacity:1" fill="#fdfdfd" d="M 237.5,168.5 C 250.697,167.271 263.031,169.938 274.5,176.5C 276.052,181.685 276.719,187.019 276.5,192.5C 275.569,207.827 275.402,223.161 276,238.5C 276.741,244.132 278.407,249.465 281,254.5C 287.246,260.866 293.746,261.032 300.5,255C 310.5,245.164 318.666,233.998 325,221.5C 331.578,208.01 338.411,194.677 345.5,181.5C 355.432,180.001 365.432,179.335 375.5,179.5C 385.915,179.351 396.248,180.018 406.5,181.5C 407.356,184.139 407.19,186.806 406,189.5C 400.687,200.795 394.354,211.461 387,221.5C 378.285,231.88 369.952,242.547 362,253.5C 355.757,263.127 356.09,272.461 363,281.5C 371.333,291.167 380.333,300.167 390,308.5C 396.312,315.125 401.645,322.458 406,330.5C 406.821,333.554 406.655,336.554 405.5,339.5C 403.885,340.154 402.218,340.654 400.5,341C 383.5,341.667 366.5,341.667 349.5,341C 347.122,340.489 344.788,339.822 342.5,339C 329.862,327.363 317.529,315.363 305.5,303C 293.222,295.698 284.389,298.865 279,312.5C 276.75,321.587 275.25,330.753 274.5,340C 236.062,345.188 203.562,333.688 177,305.5C 151.119,273.252 128.786,238.586 110,201.5C 107.238,195.549 105.072,189.382 103.5,183C 104.992,181.115 106.992,180.115 109.5,180C 124.833,179.333 140.167,179.333 155.5,180C 166.515,198.863 176.348,218.363 185,238.5C 189.433,245.93 194.933,252.43 201.5,258C 215.36,263.145 223.527,258.312 226,243.5C 227.867,227.492 227.867,211.492 226,195.5C 224.306,186.91 219.806,180.41 212.5,176C 214.888,174.139 217.554,172.806 220.5,172C 226.265,170.614 231.931,169.448 237.5,168.5 Z"/></g>
<g><path style="opacity:1" fill="#000000" d="M 35.5,355.5 C 37.5,355.5 39.5,355.5 41.5,355.5C 41.5,359.5 41.5,363.5 41.5,367.5C 39.5,367.5 37.5,367.5 35.5,367.5C 33.5,367.5 31.5,367.5 29.5,367.5C 29.5,363.5 29.5,359.5 29.5,355.5C 31.5,355.5 33.5,355.5 35.5,355.5 Z"/></g>
</svg>
