<?xml version="1.0" encoding="UTF-8"?>
<!DOCTYPE svg PUBLIC "-//W3C//DTD SVG 1.1//EN" "http://www.w3.org/Graphics/SVG/1.1/DTD/svg11.dtd">
<svg xmlns="http://www.w3.org/2000/svg" version="1.1" width="512px" height="512px" style="shape-rendering:geometricPrecision; text-rendering:geometricPrecision; image-rendering:optimizeQuality; fill-rule:evenodd; clip-rule:evenodd" xmlns:xlink="http://www.w3.org/1999/xlink">
<g><path style="opacity:0.992" fill="#000000" d="M 359.5,35.5 C 359.5,37.5 359.5,39.5 359.5,41.5C 267.166,41.3333 174.833,41.5 82.5,42C 61.0127,47.4873 47.5127,60.9873 42,82.5C 41.5,170.833 41.3333,259.166 41.5,347.5C 39.5,347.5 37.5,347.5 35.5,347.5C 33.5,347.5 31.5,347.5 29.5,347.5C 29.3333,258.499 29.5,169.499 30,80.5C 36.1667,53 53,36.1667 80.5,30C 173.499,29.5 266.499,29.3333 359.5,29.5C 359.5,31.5 359.5,33.5 359.5,35.5 Z"/></g>
<g><path style="opacity:0.986" fill="#000000" d="M 35.5,375.5 C 37.5,375.5 39.5,375.5 41.5,375.5C 41.3334,392.17 41.5001,408.837 42,425.5C 46.1904,448.69 59.6904,463.19 82.5,469C 196.833,469.667 311.167,469.667 425.5,469C 449.973,464.527 464.473,450.027 469,425.5C 469.667,311.167 469.667,196.833 469,82.5C 463.164,59.6627 448.664,46.1627 425.5,42C 406.17,41.5 386.836,41.3334 367.5,41.5C 367.5,39.5 367.5,37.5 367.5,35.5C 367.5,33.5 367.5,31.5 367.5,29.5C 388.503,29.3334 409.503,29.5 430.5,30C 455.935,35.4343 472.435,50.601 480,75.5C 481.657,193.798 481.99,312.132 481,430.5C 474.833,458 458,474.833 430.5,481C 313.833,481.667 197.167,481.667 80.5,481C 53,474.833 36.1667,458 30,430.5C 29.5001,412.17 29.3334,393.836 29.5,375.5C 31.5,375.5 33.5,375.5 35.5,375.5 Z"/></g>
<g><path style="opacity:1" fill="#47b636" d="M 359.5,35.5 C 362.167,35.5 364.833,35.5 367.5,35.5C 367.5,37.5 367.5,39.5 367.5,41.5C 386.836,41.3334 406.17,41.5 425.5,42C 448.664,46.1627 463.164,59.6627 469,82.5C 469.667,196.833 469.667,311.167 469,425.5C 464.473,450.027 449.973,464.527 425.5,469C 311.167,469.667 196.833,469.667 82.5,469C 59.6904,463.19 46.1904,448.69 42,425.5C 41.5001,408.837 41.3334,392.17 41.5,375.5C 39.5,375.5 37.5,375.5 35.5,375.5C 35.5,372.833 35.5,370.167 35.5,367.5C 37.5,367.5 39.5,367.5 41.5,367.5C 41.5,363.5 41.5,359.5 41.5,355.5C 39.5,355.5 37.5,355.5 35.5,355.5C 35.5,352.833 35.5,350.167 35.5,347.5C 37.5,347.5 39.5,347.5 41.5,347.5C 41.3333,259.166 41.5,170.833 42,82.5C 47.5127,60.9873 61.0127,47.4873 82.5,42C 174.833,41.5 267.166,41.3333 359.5,41.5C 359.5,39.5 359.5,37.5 359.5,35.5 Z"/></g>
<g><path style="opacity:1" fill="#030503" d="M 241.5,107.5 C 301.492,103.736 348.325,126.403 382,175.5C 406.515,217.335 410.181,261.001 393,306.5C 363.806,367.952 314.973,397.785 246.5,396C 226.364,394.383 207.364,388.883 189.5,379.5C 165.141,387.231 140.808,395.064 116.5,403C 109.667,404.167 106.833,401.333 108,394.5C 115.736,371.124 123.57,347.791 131.5,324.5C 98.6338,257.892 107.967,198.058 159.5,145C 183.231,124.635 210.564,112.135 241.5,107.5 Z"/></g>
<g><path style="opacity:1" fill="#f7f7f7" d="M 240.5,119.5 C 298.293,115.314 342.793,137.314 374,185.5C 394.737,224.041 397.07,263.707 381,304.5C 352.705,360.747 306.872,387.247 243.5,384C 236.427,383.052 229.427,381.719 222.5,380C 211.399,376.413 200.565,372.246 190,367.5C 167.844,374.275 145.678,380.941 123.5,387.5C 130.095,366.05 137.095,344.716 144.5,323.5C 124.236,288.532 119.403,251.532 130,212.5C 149.347,160.647 186.181,129.647 240.5,119.5 Z"/></g>
<g><path style="opacity:1" fill="#040504" d="M 243.5,129.5 C 307.941,126.776 352.108,155.109 376,214.5C 389.209,265.514 376.709,309.014 338.5,345C 301.391,373.821 260.391,381.154 215.5,367C 207.554,363.694 199.888,359.861 192.5,355.5C 178.506,359.999 164.506,364.499 150.5,369C 144.171,369.668 141.671,366.834 143,360.5C 147.204,347.388 151.704,334.388 156.5,321.5C 126.359,273.255 127.193,225.588 159,178.5C 180.667,150.918 208.834,134.584 243.5,129.5 Z"/></g>
<g><path style="opacity:1" fill="#47b536" d="M 242.5,141.5 C 284.449,137.741 318.949,151.741 346,183.5C 371.355,217.654 376.355,254.654 361,294.5C 342.681,333.419 312.181,355.919 269.5,362C 242.992,364.623 218.658,358.623 196.5,344C 195.333,343.833 194.167,343.667 193,343.5C 181.414,346.528 169.914,349.862 158.5,353.5C 161.829,342.512 165.162,331.512 168.5,320.5C 164.293,311.762 159.793,303.095 155,294.5C 137.112,244.215 147.946,201.382 187.5,166C 203.925,153.452 222.258,145.286 242.5,141.5 Z"/></g>
<g><path style="opacity:1" fill="#040503" d="M 209.5,181.5 C 217.82,180.548 224.653,183.214 230,189.5C 234.765,200.131 238.931,210.964 242.5,222C 241.539,229.296 238.372,235.463 233,240.5C 232.333,241.833 232.333,243.167 233,244.5C 243.693,260.357 257.86,272.024 275.5,279.5C 280.346,274.155 285.346,268.988 290.5,264C 293.702,262.517 297.036,262.183 300.5,263C 311.723,267.861 322.556,273.361 333,279.5C 337.441,293.193 333.941,304.693 322.5,314C 308.503,322.95 293.503,324.95 277.5,320C 237.116,306.617 207.616,280.783 189,242.5C 180.042,221.466 183.542,202.966 199.5,187C 202.767,184.87 206.1,183.037 209.5,181.5 Z"/></g>
<g><path style="opacity:1" fill="#fafafa" d="M 211.5,193.5 C 214.482,193.104 217.149,193.771 219.5,195.5C 223.098,203.793 226.598,212.126 230,220.5C 230.667,221.833 230.667,223.167 230,224.5C 227.667,227.5 225.333,230.5 223,233.5C 219.499,240.006 219.833,246.339 224,252.5C 236.011,270.505 252.178,283.338 272.5,291C 276.402,291.738 280.068,291.072 283.5,289C 287.702,283.801 292.202,278.968 297,274.5C 305.51,278.351 314.01,282.185 322.5,286C 323.776,293.803 321.11,300.136 314.5,305C 302.212,311.605 289.545,312.272 276.5,307C 255.127,299.628 236.96,287.461 222,270.5C 211.19,258.354 202.857,244.687 197,229.5C 193.369,213.859 198.202,201.859 211.5,193.5 Z"/></g>
<g><path style="opacity:1" fill="#000000" d="M 35.5,355.5 C 37.5,355.5 39.5,355.5 41.5,355.5C 41.5,359.5 41.5,363.5 41.5,367.5C 39.5,367.5 37.5,367.5 35.5,367.5C 33.5,367.5 31.5,367.5 29.5,367.5C 29.5,363.5 29.5,359.5 29.5,355.5C 31.5,355.5 33.5,355.5 35.5,355.5 Z"/></g>
</svg>
